<?xml version="1.0" encoding="UTF-8"?>
<svg id="Layer_1" xmlns="http://www.w3.org/2000/svg" version="1.1" xmlns:sketch="http://www.bohemiancoding.com/sketch/ns" viewBox="0 0 512 512">
  <!-- Generator: Adobe Illustrator 29.8.3, SVG Export Plug-In . SVG Version: 2.1.1 Build 3)  -->
  <defs>
    <style>
      .st0 {
        fill: #733e0a;
      }

      .st1 {
        fill: #fdc700;
      }

      .st2 {
        fill: #1ed760;
      }
    </style>
  </defs>
  <path class="st2" d="M384.2,203.1c-46.4-23.4-101.2-37.1-159.1-37.1s-64.9,4.4-95.2,12.7l2.6-.6c-1.8.6-3.8.9-6,.9-11,0-19.9-8.9-19.9-19.9s5.8-16.4,13.8-19h.2c77.1-22.9,204-18.5,284.4,29.3,6.1,3.8,10.2,10.4,10.2,18.1s-1,7.3-2.7,10.3h0c-4.3,5-10.4,8-17.5,8s-7.6-1-10.8-2.8h0v.1ZM381.9,263.9c-2.9,4.9-8.1,7.9-14.1,7.9s-6.2-.9-8.8-2.6h0c-39.7-22.6-87.2-35.9-137.8-35.9s-54.8,4.1-80.2,11.6l2-.5c-1.5.4-3.2.8-5,.8-9.1,0-16.5-7.3-16.5-16.5s4.9-13.6,11.4-15.7h0c26.1-7.7,56.1-12.2,87.2-12.2,57.7,0,111.9,15.5,158.6,42.4l-1.5-.9c4.4,2.8,7.1,7.5,7.1,13s-.9,6.1-2.6,8.5h.3-.1v.1ZM355.9,323.6c-2.3,3.9-6.4,6.5-11.3,6.5s-5.2-.9-7.3-2.2h0c-34.7-19.5-76.1-30.9-120.1-30.9s-49.7,3.8-72.7,10.8l1.8-.4c-.9.3-2.1.4-3.2.4-7.3,0-13.4-6.1-13.4-13.4s4.4-11.5,10.1-13h0c22.9-6.7,49.2-10.7,76.4-10.7,49.3,0,95.5,12.8,135.6,35.4l-1.5-.8c4.4,2.2,7.3,6.6,7.3,11.7s-.7,4.8-1.9,6.6h.2,0ZM256,10h0c-119.9,0-217.1,97.2-217.1,217.1s97.2,217.1,217.1,217.1,217.1-97.2,217.1-217.1h0c-.3-119.7-97.3-216.7-217.1-217.1h0Z"/>
  <path class="st1" d="M53.9,351h398.8c11.2,0,20.4,9,20.4,20.1v110.8c0,11.1-9.1,20.1-20.4,20.1H53.9c-11.2,0-20.4-9-20.4-20.1v-110.8c0-11.1,9.1-20.1,20.4-20.1h0Z"/>
  <g>
    <path class="st0" d="M70.76,465.35v-77.71h23.4l50.61,59.75-5.66,1.31v-61.06h18.83v77.71h-23.51l-49.52-58.45,4.57-1.74v60.19h-18.72Z"/>
    <path class="st0" d="M171.65,465.35v-77.71h76.51v15.78h-55.73v15.24h51.48v15.13h-51.48v15.78h55.73v15.78h-76.51Z"/>
    <path class="st0" d="M254.8,465.35l41.47-45.17-2.39,9.25-37.33-41.79h26.34l28.08,32.65-13.17-.44,29.17-32.22h23.51l-39.07,42.01.65-8.82,39.72,44.51h-26.23l-29.82-34.72,14.26-.65-31.56,35.37h-23.62Z"/>
    <path class="st0" d="M387.8,465.35v-62.04h-32.76v-15.67h86.2v15.67h-32.65v62.04h-20.79Z"/>
  </g>
</svg>