<?xml version="1.0" encoding="UTF-8"?>
<svg xmlns="http://www.w3.org/2000/svg" version="1.1" xmlns:sketch="http://www.bohemiancoding.com/sketch/ns" viewBox="0 0 512 512">
  <defs>
    <style>
      .cls-1 {
        fill: #733e0a;
      }

      .cls-2 {
        fill: #fdc700;
      }

      .cls-3 {
        fill: #1ed760;
      }
    </style>
  </defs>
  <!-- Generator: Adobe Illustrator 28.7.2, SVG Export Plug-In . SVG Version: 1.2.0 Build 154)  -->
  <g>
    <g id="Layer_1">
      <g>
        <g id="_1818452274576">
          <g id="SVGRepo_iconCarrier">
            <path class="cls-3" d="M384.2,203.1c-46.4-23.4-101.2-37.1-159.1-37.1s-64.9,4.4-95.2,12.7l2.6-.6c-1.8.6-3.8.9-6,.9-11,0-19.9-8.9-19.9-19.9s5.8-16.4,13.8-19h.2c77.1-22.9,204-18.5,284.4,29.3,6.1,3.8,10.2,10.4,10.2,18.1s-1,7.3-2.7,10.3h0c-4.3,5-10.4,8-17.5,8s-7.6-1-10.8-2.8h0ZM381.9,263.9c-2.9,4.9-8.1,7.9-14.1,7.9s-6.2-.9-8.8-2.6h0c-39.7-22.6-87.2-35.9-137.8-35.9s-54.8,4.1-80.2,11.6l2-.5c-1.5.4-3.2.8-5,.8-9.1,0-16.5-7.3-16.5-16.5s4.9-13.6,11.4-15.7h0c26.1-7.7,56.1-12.2,87.2-12.2,57.7,0,111.9,15.5,158.6,42.4l-1.5-.9c4.4,2.8,7.1,7.5,7.1,13s-.9,6.1-2.6,8.5h.3-.1ZM355.9,323.6c-2.3,3.9-6.4,6.5-11.3,6.5s-5.2-.9-7.3-2.2h0c-34.7-19.5-76.1-30.9-120.1-30.9s-49.7,3.8-72.7,10.8l1.8-.4c-.9.3-2.1.4-3.2.4-7.3,0-13.4-6.1-13.4-13.4s4.4-11.5,10.1-13h0c22.9-6.7,49.2-10.7,76.4-10.7,49.3,0,95.5,12.8,135.6,35.4l-1.5-.8c4.4,2.2,7.3,6.6,7.3,11.7s-.7,4.8-1.9,6.6h.2,0ZM256,10h0c-119.9,0-217.1,97.2-217.1,217.1s97.2,217.1,217.1,217.1,217.1-97.2,217.1-217.1h0c-.3-119.7-97.3-216.7-217.1-217.1h0Z"/>
          </g>
        </g>
        <path class="cls-2" d="M53.9,351h398.8c11.2,0,20.4,9,20.4,20.1v110.8c0,11.1-9.1,20.1-20.4,20.1H53.9c-11.2,0-20.4-9-20.4-20.1v-110.8c0-11.1,9.1-20.1,20.4-20.1Z"/>
        <g>
          <path class="cls-1" d="M113.6,479.3c-2.4,0-4.4-.8-5.9-2.3-1.5-1.5-2.3-3.5-2.3-5.8v-89.3c0-2.4.8-4.3,2.3-5.9,1.5-1.5,3.5-2.3,5.9-2.3s4.3.8,5.8,2.3c1.5,1.5,2.3,3.5,2.3,5.9v35h17.5v-35c0-2.4.8-4.3,2.3-5.9,1.5-1.5,3.5-2.3,5.9-2.3s4.3.8,5.8,2.3c1.5,1.5,2.3,3.5,2.3,5.9v89.3c0,2.4-.7,4.4-2.2,5.9-1.5,1.5-3.5,2.2-5.9,2.2s-4.4-.8-5.9-2.3c-1.5-1.5-2.3-3.5-2.3-5.8v-39.5h-17.5v39.5c0,2.4-.8,4.4-2.3,5.9-1.5,1.5-3.5,2.2-5.8,2.2Z"/>
          <path class="cls-1" d="M175.9,479.3c-2.4,0-4.4-.8-5.9-2.3-1.5-1.5-2.3-3.5-2.3-5.8v-89.3c0-2.4.8-4.3,2.3-5.9,1.5-1.5,3.5-2.3,5.9-2.3s4.3.8,5.8,2.3c1.5,1.5,2.3,3.5,2.3,5.9v89.3c0,2.4-.8,4.4-2.3,5.9-1.5,1.5-3.5,2.2-5.8,2.2Z"/>
          <path class="cls-1" d="M200.4,434c-2,0-3.7-.7-5.2-2.2-1.5-1.4-2.2-3.2-2.2-5.3s.7-3.8,2.2-5.2c1.4-1.4,3.2-2.2,5.2-2.2h19.5c2,0,3.8.7,5.2,2.2s2.2,3.2,2.2,5.2-.7,3.8-2.2,5.3-3.2,2.2-5.2,2.2h-19.5Z"/>
          <path class="cls-1" d="M250.3,477.2c-1.4,1.4-3.4,2.1-6,2.1s-4.6-.7-6-2.1c-1.4-1.4-2.1-3.4-2.1-6v-88.4c0-2.6.7-4.6,2.1-6,1.4-1.4,3.4-2.1,6-2.1h16c8.4,0,14.5,2,18.4,5.9,3.9,3.9,5.8,9.9,5.8,18v6.4c0,10.7-3.6,17.6-10.7,20.5v.3c3.9,1.2,6.7,3.6,8.4,7.2s2.5,8.5,2.5,14.7v16.1c0,2.5.2,4.5.6,6.1.4,1.5.6,2.8.6,4.1,0,3.6-2.6,5.4-7.7,5.4s-5.9-1-7.5-2.9c-1.6-2-2.4-5.2-2.4-9.8v-19.8c0-4.8-.8-8.1-2.3-10-1.5-1.9-4.2-2.8-7.9-2.8h-5.6v37.2c0,2.6-.7,4.6-2.1,6ZM252.4,419.1h5.9c3.2,0,5.7-.8,7.3-2.5s2.5-4.5,2.5-8.5v-8c0-3.7-.7-6.4-2-8.1s-3.4-2.6-6.3-2.6h-7.5v29.7Z"/>
          <path class="cls-1" d="M304,478.4c-2.4,0-4.3-.8-5.9-2.3-1.5-1.5-2.3-3.5-2.3-5.9v-87.5c0-2.4.8-4.3,2.3-5.9s3.5-2.3,5.9-2.3h29.8c2.1,0,3.9.7,5.3,2.1,1.4,1.4,2.1,3.2,2.1,5.3s-.7,3.9-2.1,5.3c-1.4,1.4-3.2,2.1-5.3,2.1h-21.7v27.4h15.9c2.1,0,3.9.7,5.3,2.1,1.4,1.4,2.1,3.2,2.1,5.3s-.7,3.9-2.1,5.3c-1.4,1.4-3.2,2.1-5.3,2.1h-15.9v31.9h21.7c2.1,0,3.9.7,5.3,2.1,1.4,1.4,2.1,3.2,2.1,5.3s-.7,3.9-2.1,5.3c-1.4,1.4-3.2,2.1-5.3,2.1h-29.8Z"/>
          <path class="cls-1" d="M371.2,479.9c-7.9,0-13.8-2.2-17.9-6.6-4.1-4.4-6.1-10.6-6.1-18.6s.7-4.3,2-5.7c1.4-1.4,3.3-2.1,5.7-2.1s4.2.7,5.6,2c1.4,1.3,2.1,3.4,2.1,6.2,0,6.8,2.8,10.1,8.5,10.1s8.5-3.5,8.5-10.4-1-8.1-3-11.4c-2-3.3-5.6-7.3-11-12-6.8-5.9-11.5-11.3-14.1-16.1-2.7-4.8-4-10.2-4-16.2s2.1-14.6,6.3-19c4.2-4.5,10.2-6.7,18.1-6.7s13.5,2.2,17.6,6.6c4.1,4.4,6.2,10.1,6.2,17s-2.6,7.8-7.7,7.8-4.4-.7-5.7-2.2-2-3.3-2-5.6-.7-4.9-2.1-6.4c-1.4-1.5-3.4-2.3-6-2.3-5.5,0-8.2,3.3-8.2,9.9s1,7.3,3.1,10.5c2.1,3.2,5.7,7.2,11,11.9,6.8,6,11.4,11.4,14,16.3,2.6,4.9,3.9,10.5,3.9,17s-2.1,15-6.3,19.5c-4.2,4.6-10.3,6.8-18.3,6.8Z"/>
        </g>
      </g>
    </g>
  </g>
</svg>
